<svg width="64" height="64" viewBox="0 0 64 64" xmlns="http://www.w3.org/2000/svg">
  <defs>
    <linearGradient id="g" x1="10" y1="8" x2="54" y2="56" gradientUnits="userSpaceOnUse">
      <stop stop-color="#5BE7FF"></stop>
      <stop offset="1" stop-color="#18D6C8"></stop>
    </linearGradient>
  </defs>
  <rect x="6" y="6" width="52" height="52" rx="14" fill="url(#g)"></rect>
  <rect x="6" y="6" width="52" height="52" rx="14" fill="#071116" fill-opacity="0.12"></rect>
  <path d="M36.9 16.5C27.7 18.6 21.1 25.6 19.4 35c-.8 4.2-.2 8.2 1.3 11.7 3.8-.5 7.3-2.2 10.1-5 4.1-4.1 5.5-9.9 4.3-15.2 3.4 3.9 4.8 9.2 3.5 14.3 5.2-3.6 8.4-9.5 8.6-15.9.1-3.7-.7-7.2-2.3-10.1-2.4.1-5.1.6-8 1.7Z" fill="#031014"></path>
  <path d="M25.8 38.8c4.4-3.7 6.7-8.1 7.6-14.2-4.9 3.1-8.1 7.1-9.1 12.1-.5 2.4-.2 4.6.4 6.4 1.7-.8 3.1-1.9 4.3-3.1" fill="#C9FFF8" opacity="0.9"></path>
</svg>